<mxfile host="app.diagrams.net" modified="2021-03-23T15:36:03.122Z" agent="5.0 (Macintosh; Intel Mac OS X 11_2_3) AppleWebKit/537.36 (KHTML, like Gecko) Chrome/89.0.4389.90 Safari/537.36" etag="FKxiH2bBgvH3MG7gihnf" version="14.4.9" type="github">
  <diagram id="llwENjA93QxbZF6YLLVZ" name="Page-1">
    <mxGraphModel dx="2131" dy="854" grid="1" gridSize="10" guides="1" tooltips="1" connect="1" arrows="1" fold="1" page="1" pageScale="1" pageWidth="850" pageHeight="1100" math="0" shadow="0">
      <root>
        <mxCell id="0" />
        <mxCell id="1" parent="0" />
        <mxCell id="uYFd_QaFXTuMg8h9Bsqa-2" value="" style="endArrow=none;html=1;" parent="1" edge="1">
          <mxGeometry width="50" height="50" relative="1" as="geometry">
            <mxPoint x="20" y="640" as="sourcePoint" />
            <mxPoint x="20" y="80" as="targetPoint" />
          </mxGeometry>
        </mxCell>
        <mxCell id="uYFd_QaFXTuMg8h9Bsqa-3" value="&lt;font style=&quot;font-size: 18px&quot;&gt;&lt;b&gt;AcceptVolunteer&lt;/b&gt;&lt;/font&gt;" style="shape=card;whiteSpace=wrap;html=1;shadow=0;direction=north;size=20;flipH=1;fillColor=#C8D9F9;align=left;" parent="1" vertex="1">
          <mxGeometry x="20" y="80" width="300" height="30" as="geometry" />
        </mxCell>
        <UserObject label="" lucidchartObjectId="MQdmsXt1-PA9" id="uYFd_QaFXTuMg8h9Bsqa-4">
          <mxCell style="html=1;overflow=block;blockSpacing=1;whiteSpace=wrap;shape=umlActor;labelPosition=center;verticalLabelPosition=bottom;verticalAlign=top;whiteSpace=nowrap;whiteSpace=wrap;fontSize=13;spacingLeft=8.4;spacing=0;strokeOpacity=100;fillOpacity=0;rounded=1;absoluteArcSize=1;arcSize=12;fillColor=#000000;strokeWidth=1.5;" parent="1" vertex="1">
            <mxGeometry x="70" y="116.5" width="50" height="100" as="geometry" />
          </mxCell>
        </UserObject>
        <UserObject label="g: GUI" lucidchartObjectId="MQdmAqv0ttIW" id="uYFd_QaFXTuMg8h9Bsqa-8">
          <mxCell style="html=1;overflow=block;blockSpacing=1;whiteSpace=wrap;;whiteSpace=wrap;fontSize=15;fontColor=#333333;fontStyle=1;spacingLeft=8.4;spacing=3.8;strokeOpacity=100;fillOpacity=100;rounded=1;absoluteArcSize=1;arcSize=12;fillColor=#c8d9f9;strokeWidth=0.8;" parent="1" vertex="1">
            <mxGeometry x="190" y="130" width="120" height="73" as="geometry" />
          </mxCell>
        </UserObject>
        <mxCell id="uYFd_QaFXTuMg8h9Bsqa-10" value="" style="endArrow=none;dashed=1;html=1;entryX=0.5;entryY=1;entryDx=0;entryDy=0;exitX=0.5;exitY=0;exitDx=0;exitDy=0;" parent="1" source="uYFd_QaFXTuMg8h9Bsqa-37" target="uYFd_QaFXTuMg8h9Bsqa-8" edge="1">
          <mxGeometry width="50" height="50" relative="1" as="geometry">
            <mxPoint x="250" y="240" as="sourcePoint" />
            <mxPoint x="300" y="190" as="targetPoint" />
          </mxGeometry>
        </mxCell>
        <mxCell id="uYFd_QaFXTuMg8h9Bsqa-12" value="" style="endArrow=none;dashed=1;html=1;" parent="1" edge="1">
          <mxGeometry width="50" height="50" relative="1" as="geometry">
            <mxPoint x="80" y="600" as="sourcePoint" />
            <mxPoint x="80" y="260" as="targetPoint" />
          </mxGeometry>
        </mxCell>
        <mxCell id="uYFd_QaFXTuMg8h9Bsqa-32" value="&lt;font style=&quot;font-size: 18px&quot;&gt;&lt;b&gt;Service Requestor&lt;/b&gt;&lt;/font&gt;" style="text;html=1;strokeColor=none;fillColor=none;align=center;verticalAlign=middle;whiteSpace=wrap;rounded=0;shadow=0;" parent="1" vertex="1">
          <mxGeometry x="10" y="210" width="200" height="40" as="geometry" />
        </mxCell>
        <mxCell id="uYFd_QaFXTuMg8h9Bsqa-33" value="" style="endArrow=none;html=1;" parent="1" edge="1">
          <mxGeometry width="50" height="50" relative="1" as="geometry">
            <mxPoint x="20" y="640" as="sourcePoint" />
            <mxPoint x="840" y="640" as="targetPoint" />
          </mxGeometry>
        </mxCell>
        <mxCell id="uYFd_QaFXTuMg8h9Bsqa-34" value="" style="endArrow=none;html=1;" parent="1" edge="1">
          <mxGeometry width="50" height="50" relative="1" as="geometry">
            <mxPoint x="840" y="640" as="sourcePoint" />
            <mxPoint x="840" y="80" as="targetPoint" />
          </mxGeometry>
        </mxCell>
        <mxCell id="uYFd_QaFXTuMg8h9Bsqa-35" value="" style="endArrow=none;html=1;entryX=1;entryY=0;entryDx=0;entryDy=0;entryPerimeter=0;" parent="1" target="uYFd_QaFXTuMg8h9Bsqa-3" edge="1">
          <mxGeometry width="50" height="50" relative="1" as="geometry">
            <mxPoint x="840" y="80" as="sourcePoint" />
            <mxPoint x="900" y="410" as="targetPoint" />
          </mxGeometry>
        </mxCell>
        <UserObject label="" lucidchartObjectId="MQdme0VbJFhK" id="uYFd_QaFXTuMg8h9Bsqa-37">
          <mxCell style="html=1;overflow=block;blockSpacing=1;whiteSpace=wrap;;whiteSpace=wrap;fontSize=13;spacingLeft=8.4;spacing=3.8;strokeOpacity=0;fillOpacity=100;rounded=1;absoluteArcSize=1;arcSize=12;fillColor=#cccccc;strokeWidth=0.8;" parent="1" vertex="1">
            <mxGeometry x="242.5" y="250" width="15" height="285" as="geometry" />
          </mxCell>
        </UserObject>
        <mxCell id="uYFd_QaFXTuMg8h9Bsqa-38" value="" style="endArrow=none;dashed=1;html=1;entryX=0.5;entryY=1;entryDx=0;entryDy=0;" parent="1" edge="1">
          <mxGeometry width="50" height="50" relative="1" as="geometry">
            <mxPoint x="250" y="640" as="sourcePoint" />
            <mxPoint x="249.5" y="535" as="targetPoint" />
          </mxGeometry>
        </mxCell>
        <mxCell id="uYFd_QaFXTuMg8h9Bsqa-39" value="" style="endArrow=classic;html=1;entryX=0.017;entryY=0.105;entryDx=0;entryDy=0;entryPerimeter=0;" parent="1" target="uYFd_QaFXTuMg8h9Bsqa-37" edge="1">
          <mxGeometry width="50" height="50" relative="1" as="geometry">
            <mxPoint x="80" y="280" as="sourcePoint" />
            <mxPoint x="840" y="440" as="targetPoint" />
          </mxGeometry>
        </mxCell>
        <mxCell id="uYFd_QaFXTuMg8h9Bsqa-40" value="&lt;font style=&quot;font-size: 14px&quot;&gt;Click &#39;Accept&#39; on Candidate&lt;/font&gt;" style="text;html=1;strokeColor=none;fillColor=none;align=center;verticalAlign=middle;whiteSpace=wrap;rounded=0;" parent="1" vertex="1">
          <mxGeometry x="90" y="347.5" width="130" height="30" as="geometry" />
        </mxCell>
        <UserObject label="User" lucidchartObjectId="MQdmAqv0ttIW" id="uYFd_QaFXTuMg8h9Bsqa-41">
          <mxCell style="html=1;overflow=block;blockSpacing=1;whiteSpace=wrap;;whiteSpace=wrap;fontSize=15;fontColor=#333333;fontStyle=1;spacingLeft=8.4;spacing=3.8;strokeOpacity=100;fillOpacity=100;rounded=1;absoluteArcSize=1;arcSize=12;fillColor=#c8d9f9;strokeWidth=0.8;" parent="1" vertex="1">
            <mxGeometry x="365" y="130" width="120" height="73" as="geometry" />
          </mxCell>
        </UserObject>
        <UserObject label="s: Service Manager" lucidchartObjectId="MQdmAqv0ttIW" id="uYFd_QaFXTuMg8h9Bsqa-42">
          <mxCell style="html=1;overflow=block;blockSpacing=1;whiteSpace=wrap;;whiteSpace=wrap;fontSize=15;fontColor=#333333;fontStyle=1;spacingLeft=8.4;spacing=3.8;strokeOpacity=100;fillOpacity=100;rounded=1;absoluteArcSize=1;arcSize=12;fillColor=#c8d9f9;strokeWidth=0.8;" parent="1" vertex="1">
            <mxGeometry x="530" y="130" width="120" height="73" as="geometry" />
          </mxCell>
        </UserObject>
        <UserObject label="b: Booking" lucidchartObjectId="MQdmAqv0ttIW" id="uYFd_QaFXTuMg8h9Bsqa-43">
          <mxCell style="html=1;overflow=block;blockSpacing=1;whiteSpace=wrap;;whiteSpace=wrap;fontSize=15;fontColor=#333333;fontStyle=1;spacingLeft=8.4;spacing=3.8;strokeOpacity=100;fillOpacity=100;rounded=1;absoluteArcSize=1;arcSize=12;fillColor=#c8d9f9;strokeWidth=0.8;" parent="1" vertex="1">
            <mxGeometry x="710" y="390" width="120" height="73" as="geometry" />
          </mxCell>
        </UserObject>
        <UserObject label="" lucidchartObjectId="MQdmyBwsHD2w" id="uYFd_QaFXTuMg8h9Bsqa-45">
          <mxCell style="html=1;overflow=block;blockSpacing=1;whiteSpace=wrap;;whiteSpace=wrap;fontSize=13;spacingLeft=8.4;spacing=3.8;strokeOpacity=0;fillOpacity=100;rounded=1;absoluteArcSize=1;arcSize=12;fillColor=#cccccc;strokeWidth=0.8;" parent="1" vertex="1">
            <mxGeometry x="418" y="330" width="15" height="160" as="geometry" />
          </mxCell>
        </UserObject>
        <UserObject label="" lucidchartObjectId="MQdmyBwsHD2w" id="uYFd_QaFXTuMg8h9Bsqa-46">
          <mxCell style="html=1;overflow=block;blockSpacing=1;whiteSpace=wrap;;whiteSpace=wrap;fontSize=13;spacingLeft=8.4;spacing=3.8;strokeOpacity=0;fillOpacity=100;rounded=1;absoluteArcSize=1;arcSize=12;fillColor=#cccccc;strokeWidth=0.8;" parent="1" vertex="1">
            <mxGeometry x="582.5" y="360" width="15" height="90" as="geometry" />
          </mxCell>
        </UserObject>
        <mxCell id="uYFd_QaFXTuMg8h9Bsqa-47" value="" style="endArrow=classic;html=1;exitX=1;exitY=0.5;exitDx=0;exitDy=0;entryX=-0.033;entryY=0.388;entryDx=0;entryDy=0;entryPerimeter=0;" parent="1" source="uYFd_QaFXTuMg8h9Bsqa-37" target="uYFd_QaFXTuMg8h9Bsqa-45" edge="1">
          <mxGeometry width="50" height="50" relative="1" as="geometry">
            <mxPoint x="790" y="470" as="sourcePoint" />
            <mxPoint x="840" y="420" as="targetPoint" />
          </mxGeometry>
        </mxCell>
        <mxCell id="uYFd_QaFXTuMg8h9Bsqa-48" value="" style="endArrow=classic;html=1;exitX=1;exitY=0.5;exitDx=0;exitDy=0;" parent="1" edge="1">
          <mxGeometry width="50" height="50" relative="1" as="geometry">
            <mxPoint x="433" y="407.5" as="sourcePoint" />
            <mxPoint x="580" y="407.58" as="targetPoint" />
          </mxGeometry>
        </mxCell>
        <mxCell id="uYFd_QaFXTuMg8h9Bsqa-49" value="" style="endArrow=classic;html=1;exitX=1.217;exitY=0.672;exitDx=0;exitDy=0;exitPerimeter=0;" parent="1" source="uYFd_QaFXTuMg8h9Bsqa-46" edge="1">
          <mxGeometry width="50" height="50" relative="1" as="geometry">
            <mxPoint x="790" y="470" as="sourcePoint" />
            <mxPoint x="710" y="420" as="targetPoint" />
          </mxGeometry>
        </mxCell>
        <mxCell id="uYFd_QaFXTuMg8h9Bsqa-50" value="&lt;span style=&quot;font-size: 14px&quot;&gt;acceptVolunteer(int)&lt;/span&gt;" style="text;html=1;strokeColor=none;fillColor=none;align=center;verticalAlign=middle;whiteSpace=wrap;rounded=0;" parent="1" vertex="1">
          <mxGeometry x="270" y="360" width="130" height="30" as="geometry" />
        </mxCell>
        <mxCell id="uYFd_QaFXTuMg8h9Bsqa-51" value="&lt;font style=&quot;font-size: 14px&quot;&gt;createBooking()&lt;/font&gt;" style="text;html=1;strokeColor=none;fillColor=none;align=center;verticalAlign=middle;whiteSpace=wrap;rounded=0;" parent="1" vertex="1">
          <mxGeometry x="440" y="377.5" width="130" height="30" as="geometry" />
        </mxCell>
        <mxCell id="uYFd_QaFXTuMg8h9Bsqa-52" value="" style="endArrow=classic;html=1;exitX=0;exitY=0.75;exitDx=0;exitDy=0;entryX=1.167;entryY=0.702;entryDx=0;entryDy=0;entryPerimeter=0;" parent="1" source="uYFd_QaFXTuMg8h9Bsqa-45" target="uYFd_QaFXTuMg8h9Bsqa-37" edge="1">
          <mxGeometry width="50" height="50" relative="1" as="geometry">
            <mxPoint x="790" y="480" as="sourcePoint" />
            <mxPoint x="840" y="430" as="targetPoint" />
          </mxGeometry>
        </mxCell>
        <mxCell id="uYFd_QaFXTuMg8h9Bsqa-53" value="&lt;span style=&quot;font-size: 14px&quot;&gt;Display Confirmation&lt;/span&gt;" style="text;html=1;strokeColor=none;fillColor=none;align=center;verticalAlign=middle;whiteSpace=wrap;rounded=0;" parent="1" vertex="1">
          <mxGeometry x="270" y="420" width="130" height="30" as="geometry" />
        </mxCell>
        <mxCell id="uYFd_QaFXTuMg8h9Bsqa-54" value="" style="endArrow=none;dashed=1;html=1;exitX=0.5;exitY=1;exitDx=0;exitDy=0;" parent="1" source="uYFd_QaFXTuMg8h9Bsqa-45" edge="1">
          <mxGeometry width="50" height="50" relative="1" as="geometry">
            <mxPoint x="790" y="480" as="sourcePoint" />
            <mxPoint x="426" y="640" as="targetPoint" />
          </mxGeometry>
        </mxCell>
        <mxCell id="uYFd_QaFXTuMg8h9Bsqa-55" value="" style="endArrow=none;dashed=1;html=1;exitX=0.5;exitY=1;exitDx=0;exitDy=0;" parent="1" edge="1">
          <mxGeometry width="50" height="50" relative="1" as="geometry">
            <mxPoint x="425" y="203" as="sourcePoint" />
            <mxPoint x="426" y="330" as="targetPoint" />
          </mxGeometry>
        </mxCell>
        <mxCell id="uYFd_QaFXTuMg8h9Bsqa-58" value="" style="endArrow=none;dashed=1;html=1;" parent="1" edge="1">
          <mxGeometry width="50" height="50" relative="1" as="geometry">
            <mxPoint x="590" y="450" as="sourcePoint" />
            <mxPoint x="590" y="640" as="targetPoint" />
          </mxGeometry>
        </mxCell>
        <mxCell id="uYFd_QaFXTuMg8h9Bsqa-59" value="" style="endArrow=none;dashed=1;html=1;exitX=0.5;exitY=1;exitDx=0;exitDy=0;entryX=0.5;entryY=0;entryDx=0;entryDy=0;" parent="1" source="uYFd_QaFXTuMg8h9Bsqa-42" target="uYFd_QaFXTuMg8h9Bsqa-46" edge="1">
          <mxGeometry width="50" height="50" relative="1" as="geometry">
            <mxPoint x="790" y="480" as="sourcePoint" />
            <mxPoint x="840" y="430" as="targetPoint" />
          </mxGeometry>
        </mxCell>
        <mxCell id="mB_n3BI9cVwcv5ijJMTX-1" value="" style="endArrow=classic;html=1;exitX=1;exitY=0.5;exitDx=0;exitDy=0;" edge="1" parent="1">
          <mxGeometry width="50" height="50" relative="1" as="geometry">
            <mxPoint x="435.5" y="434.5" as="sourcePoint" />
            <mxPoint x="582.5" y="434.5799999999999" as="targetPoint" />
          </mxGeometry>
        </mxCell>
        <mxCell id="mB_n3BI9cVwcv5ijJMTX-2" value="&lt;font style=&quot;font-size: 14px&quot;&gt;deleteAdvertisement()&lt;/font&gt;" style="text;html=1;strokeColor=none;fillColor=none;align=center;verticalAlign=middle;whiteSpace=wrap;rounded=0;" vertex="1" parent="1">
          <mxGeometry x="440" y="407.5" width="130" height="30" as="geometry" />
        </mxCell>
        <mxCell id="mB_n3BI9cVwcv5ijJMTX-5" value="" style="endArrow=classic;html=1;exitX=0.083;exitY=0.282;exitDx=0;exitDy=0;exitPerimeter=0;" edge="1" parent="1" source="uYFd_QaFXTuMg8h9Bsqa-37">
          <mxGeometry width="50" height="50" relative="1" as="geometry">
            <mxPoint x="400" y="460" as="sourcePoint" />
            <mxPoint x="80" y="330" as="targetPoint" />
          </mxGeometry>
        </mxCell>
        <mxCell id="mB_n3BI9cVwcv5ijJMTX-6" value="" style="endArrow=classic;html=1;entryX=0.017;entryY=0.146;entryDx=0;entryDy=0;entryPerimeter=0;" edge="1" parent="1">
          <mxGeometry width="50" height="50" relative="1" as="geometry">
            <mxPoint x="79.74" y="380" as="sourcePoint" />
            <mxPoint x="242.49500000000012" y="381.6099999999999" as="targetPoint" />
          </mxGeometry>
        </mxCell>
      </root>
    </mxGraphModel>
  </diagram>
</mxfile>
